<svg width="1600" height="1585" viewBox="0 0 1600 1585" fill="none" xmlns="http://www.w3.org/2000/svg">
<g clip-path="url(#clip0_102_126)">
<rect width="1600" height="1585" fill="#233027"/>
<circle cx="1374" cy="183" r="367" fill="#109F64"/>
<circle cx="800" cy="1211" r="288" fill="#06C476"/>
<g filter="url(#filter0_b_102_126)">
<rect width="1600" height="1200" fill="#0C1A11" fill-opacity="0.7"/>
</g>
<g opacity="0.7">
<path d="M938.524 1718.42C799.366 1673.48 843.732 1465.19 753.941 1358.46C661.016 1249.09 588.921 1307.58 460.572 1162.24C379.23 1070.54 456.252 564.69 414.928 437.487C364.678 284.852 227.324 293.72 209.467 120.388C198.957 16.8652 188.651 -86.1827 178.141 -189.706" stroke="url(#paint0_linear_102_126)" stroke-miterlimit="10"/>
<path d="M892.382 1754.04C799.695 1724.39 788.18 1621.61 764.15 1525.38C752.237 1477.5 737.122 1431.47 707.312 1396.2C615.54 1286.5 542.384 1342.62 419.484 1196.14C394.945 1166.94 386.504 1099.23 383.784 1016.93C378.569 841.991 397.012 604.272 375.32 497.969C373.546 489.19 371.478 481.275 369.114 474.223C326.587 350.444 227.452 332.146 182.909 234.684C173 213.175 165.976 187.524 162.63 156.48C151.615 53.3196 141.599 -50.6166 131.083 -154.165" stroke="url(#paint1_linear_102_126)" stroke-miterlimit="10"/>
<path d="M846.184 1789.77C754.147 1760.2 742.33 1658.26 717.785 1562.39C706.07 1514.97 690.945 1468.93 661.617 1433.26C571.2 1323.72 496.271 1377.38 379.321 1229.37C355.767 1199.38 347.821 1131.27 345.804 1049.03C341.882 872.404 355.245 639.839 330.926 533.631C329.151 524.849 327.081 516.931 324.216 510.265C279.869 388.48 181.764 368.061 137.195 270.574C127.28 249.059 119.751 223.789 116.404 192.737C104.677 89.4601 94.6558 -14.5034 84.6338 -118.467" stroke="url(#paint2_linear_102_126)" stroke-miterlimit="10"/>
<path d="M799.992 1825.37C707.909 1795.8 695.79 1694.7 671.438 1599.28C659.717 1551.85 644.29 1506.66 615.447 1470.61C525.895 1361.6 450.201 1412.03 338.218 1263.26C314.948 1232.41 308.703 1163.59 307.391 1081.42C304.557 902.643 313.04 675.721 286.093 569.612C283.817 561.216 281.746 553.297 279.38 546.242C233.92 426.546 136.857 404.007 91.3557 305.933C81.4364 284.413 73.9041 259.137 70.555 228.079C58.3224 125.167 48.7953 20.7926 37.8586 -83.7587" stroke="url(#paint3_linear_102_126)" stroke-miterlimit="10"/>
<path d="M753.351 1861.45C661.917 1831.95 648.79 1731.6 625.128 1636.25C613.104 1589.67 597.963 1543.61 569.308 1508.01C481.112 1399.15 404.143 1446.74 297.621 1296.82C275.133 1264.71 269.59 1195.96 268.981 1113.86C267.443 933.392 270.834 711.629 241.254 605.614C238.977 597.216 236.905 589.294 234.037 582.625C186.751 464.925 90.7222 440.264 45.1932 342.164C35.063 320.162 27.5262 294.881 23.6745 264.202C10.7291 161.174 1.19625 56.7708 -9.24655 -48.1963" stroke="url(#paint4_linear_102_126)" stroke-miterlimit="10"/>
<path d="M707.099 1897.12C616.326 1867.71 602.692 1767.73 578.723 1673.22C566.694 1626.63 551.25 1581.42 523.081 1545.43C436.254 1436.73 358.518 1481.07 256.975 1330.4C234.772 1297.42 230.933 1227.97 231.03 1145.94C230.789 963.791 229.083 747.202 196.871 641.287C194.592 632.887 192.019 625.352 189.149 618.681C140.543 502.597 45.5593 475.813 -0.4927 378.08C-10.6279 356.074 -18.1683 330.787 -22.0219 300.101C-35.6794 196.963 -44.7158 92.1504 -55.1636 -12.8391" stroke="url(#paint5_linear_102_126)" stroke-miterlimit="10"/>
<path d="M660.964 1932.77C570.34 1903.83 556.402 1804.69 532.418 1710.15C520.381 1663.55 505.133 1618.8 476.947 1582.8C390.977 1474.64 312.258 1515.27 216.393 1363.93C195.178 1330.16 192.34 1259.91 192.642 1178.34C193.698 994.5 186.89 783.075 152.039 677.254C149.258 669.24 146.682 661.703 143.811 655.031C93.877 540.556 -0.57381 512.035 -46.6542 414.276C-56.7957 392.264 -64.5459 366.493 -68.903 336.187C-83.07 233.409 -91.6111 128.181 -102.476 22.2099" stroke="url(#paint6_linear_102_126)" stroke-miterlimit="10"/>
<path d="M614.671 1968.43C524.508 1939.1 509.766 1841.19 485.977 1747.11C474.14 1700.98 458.679 1655.74 430.686 1620.22C346.592 1511.81 266.607 1549.6 175.736 1397.5C154.808 1362.86 153.175 1292.3 154.686 1210.41C157.041 1024.9 145.832 818.746 107.934 712.074C105.152 704.059 102.575 696.52 99.7023 689.847C47.9465 577.379 -45.4527 546.735 -91.7589 448.481C-102.11 425.987 -110.16 401.076 -114.018 370.377C-128.396 267.102 -137.442 162.242 -148.311 56.251" stroke="url(#paint7_linear_102_126)" stroke-miterlimit="10"/>
<path d="M568.518 2004.11C478.506 1975.24 463.754 1877.31 439.655 1784.07C427.81 1737.93 412.044 1693.55 384.535 1657.62C301.302 1549.76 220.835 1583.44 135.153 1431.06C115.01 1395.15 114.585 1324.28 116.302 1242.84C119.958 1055.64 103.636 854.655 63.0922 748.078C60.3085 740.061 57.2284 732.908 54.3538 726.233C1.47241 615.855 -91.0943 582.608 -137.93 484.716C-148.789 462.605 -156.343 437.299 -160.704 406.98C-175.593 304.067 -184.349 198.313 -195.225 92.2941" stroke="url(#paint8_linear_102_126)" stroke-miterlimit="10"/>
<path d="M521.923 2040.13C432.563 2011.34 417.005 1914.64 392.89 1821.37C381.244 1775.69 365.468 1731.3 337.943 1695.37C256.074 1587.65 174.621 1617.61 94.3411 1465.43C74.9842 1428.26 75.7681 1357.06 77.6912 1276.08C82.9466 1086.33 61.2077 891.382 18.0152 784.9C14.7279 777.269 12.148 769.726 8.76971 763.437C-45.4441 654.673 -137.475 619.686 -184.339 521.769C-195.205 499.652 -202.968 473.864 -207.834 443.925C-223.439 340.897 -232.2 235.116 -242.581 128.681" stroke="url(#paint9_linear_102_126)" stroke-miterlimit="10"/>
<path d="M475.691 2075.76C386.994 2047.05 370.926 1950.71 346.503 1858.3C334.349 1813 318.77 1769.07 291.733 1732.74C211.239 1625.18 129.517 1651.51 53.7395 1498.96C34.6696 1460.92 37.1659 1389.02 39.7977 1308.11C46.3566 1116.67 20.202 927 -26.3451 820.53C-29.634 812.897 -32.7172 805.741 -36.0972 799.451C-91.639 692.306 -182.414 655.67 -230.01 557.644C-240.881 535.522 -248.648 509.727 -253.517 479.782C-269.632 377.12 -277.895 270.929 -288.692 163.517" stroke="url(#paint10_linear_102_126)" stroke-miterlimit="10"/>
<path d="M429.542 2111.43C340.996 2083.19 324.415 1987.22 300.183 1895.25C288.021 1849.94 272.434 1806.01 245.586 1770.14C166.459 1662.73 84.251 1684.95 13.1782 1532.5C-5.10417 1493.2 -1.89784 1421.37 1.44374 1340.53C9.30839 1147.39 -21.4756 962.515 -71.1807 856.528C-74.4717 848.893 -77.5571 841.736 -80.9391 835.444C-137.817 729.914 -228.055 691.537 -275.885 593.007C-286.969 570.403 -295.243 544.991 -299.909 515.515C-316.742 412.738 -325.01 306.519 -335.813 199.079" stroke="url(#paint11_linear_102_126)" stroke-miterlimit="10"/>
<path d="M383.238 2147.14C295.151 2118.52 277.762 2023.78 253.724 1932.27C241.762 1887.43 226.166 1843.48 199.807 1807.22C121.348 1699.88 39.1668 1717.59 -26.9822 1565.73C-44.4742 1525.16 -40.0548 1453.02 -36.003 1372.25C-26.832 1177.43 -62.7499 997.746 -115.108 891.86C-118.904 884.612 -121.99 877.453 -125.374 871.16C-183.377 767.728 -273.273 727.133 -321.127 628.583C-332.216 605.974 -340.494 580.556 -345.369 550.596C-362.919 447.709 -370.688 341.079 -381.497 233.617" stroke="url(#paint12_linear_102_126)" stroke-miterlimit="10"/>
<path d="M337.092 2182.79C249.157 2154.63 231.964 2060.34 207.407 1969.2C195.438 1924.35 179.535 1881.26 153.664 1844.6C76.5752 1737.41 -5.58858 1750.62 -67.5243 1599.25C-84.7298 1557.8 -78.7991 1484.48 -74.333 1404.64C-63.3503 1207.74 -104.205 1033.72 -159.934 927.839C-163.732 920.59 -167.324 913.817 -170.71 907.523C-230.554 806.097 -318.904 762.983 -367.291 664.796C-378.387 642.181 -386.671 616.756 -392.051 587.178C-410.115 484.653 -417.385 377.608 -428.613 269.164" stroke="url(#paint13_linear_102_126)" stroke-miterlimit="10"/>
<path d="M290.393 2218.78C203.125 2190.7 184.917 2097.17 160.555 2006.49C148.786 1962.11 132.67 1918.53 106.992 1882.34C31.2858 1775.31 -51.3525 1784.4 -108.559 1633.14C-124.972 1590.44 -117.826 1516.79 -112.648 1437.03C-100.356 1238.45 -145.852 1069.24 -204.742 963.847C-208.541 956.596 -212.135 949.822 -216.025 943.915C-277.202 844.113 -364.999 799.258 -413.409 701.053C-424.51 678.433 -433.003 652.526 -438.386 622.942C-457.168 520.309 -464.442 413.242 -475.172 304.388" stroke="url(#paint14_linear_102_126)" stroke-miterlimit="10"/>
</g>
<g opacity="0.7">
<path d="M1719.99 1330.82C1750.48 1153.08 1597.17 1130.42 1566.71 988.031C1535.88 841.06 1604.42 778.115 1565.54 577.158C1541.16 449.943 1181.95 359.189 1117.57 265.833C1040.59 153.039 1105.03 -3.43112 1000.86 -85.9538C938.574 -135.06 876.511 -183.76 814.229 -232.867" stroke="url(#paint15_linear_102_126)" stroke-width="0.910388" stroke-miterlimit="10"/>
<path d="M1764.72 1288.7C1785.2 1170.46 1723.83 1120.45 1672.02 1058.24C1646.22 1027.34 1622.99 993.377 1612.98 946.176C1581.43 800.468 1648.9 735.473 1606.93 540.494C1598.58 501.579 1558.51 467.644 1506.58 435.155C1395.96 366.758 1234.73 303.473 1175.43 240.39C1170.52 235.201 1166.3 229.977 1162.76 224.718C1101.09 131.203 1131.65 9.50863 1087.82 -76.9707C1078.18 -96.147 1064.63 -113.449 1046.04 -128.398C984.198 -177.956 921.432 -226.631 859.13 -275.747" stroke="url(#paint16_linear_102_126)" stroke-width="0.910388" stroke-miterlimit="10"/>
<path d="M1809.53 1246.55C1829.77 1129.13 1769.06 1079.08 1717.69 1016.41C1692.11 985.91 1668.87 951.938 1658.39 905.17C1626.35 761.129 1692.98 693.235 1647.46 504.674C1638.18 466.636 1597.63 433.135 1545.44 401.489C1433.17 333.996 1277.42 266.645 1219.3 200.556C1214.39 195.366 1210.17 190.141 1207.09 184.438C1147.47 89.5399 1176.21 -31.6689 1132.36 -118.167C1122.72 -137.348 1109.63 -155.096 1091.03 -170.048C1029.41 -220.468 966.624 -269.152 903.835 -317.837" stroke="url(#paint17_linear_102_126)" stroke-width="0.910388" stroke-miterlimit="10"/>
<path d="M1854.25 1204.39C1874.51 1086.95 1814.46 1036.86 1763.3 974.583C1737.7 944.076 1715.14 910.063 1704.19 863.729C1672.12 720.92 1736.99 651.01 1688.84 467.993C1678.88 429.983 1637.14 398.212 1584.69 367.41C1470.56 300.418 1320.53 229.409 1263.58 160.316C1259.14 154.682 1254.91 149.456 1251.37 144.194C1193.56 48.7663 1220.48 -71.9517 1176.64 -159.723C1167 -178.907 1153.91 -196.658 1135.3 -211.613C1074.13 -262.484 1010.86 -310.736 948.076 -360.687" stroke="url(#paint18_linear_102_126)" stroke-width="0.910388" stroke-miterlimit="10"/>
<path d="M1899.49 1161.84C1919.51 1045.22 1860.37 994.228 1808.94 932.793C1784.03 902.243 1760.77 868.258 1750.04 822.321C1717.47 681.181 1781.04 608.811 1729.8 431.775C1718.68 394.234 1676.69 363.306 1623.97 333.347C1508.19 267.261 1363.65 192.181 1307.88 120.079C1303.43 114.444 1299.2 109.217 1296.12 103.512C1240.37 6.69961 1265.47 -113.531 1221.62 -201.322C1211.75 -220.918 1198.65 -238.673 1180.5 -254.074C1119.55 -305.806 1056.26 -354.069 992.99 -403.588" stroke="url(#paint19_linear_102_126)" stroke-width="0.910388" stroke-miterlimit="10"/>
<path d="M1944.27 1119.64C1964.05 1003.85 1905.36 952.415 1854.6 890.933C1829.68 860.378 1807.1 826.352 1795.9 780.85C1762.83 641.386 1824.64 567 1770.77 395.512C1758.96 358 1715.79 328.802 1662.81 299.688C1545.38 234.511 1406.35 155.363 1351.75 80.2551C1347.31 74.6192 1343.54 68.9483 1340.46 63.2422C1286.31 -34.5078 1309.58 -154.248 1266.18 -242.497C1256.31 -262.096 1243.21 -279.854 1225.05 -295.257C1164.33 -347.849 1100.55 -395.677 1037.27 -445.205" stroke="url(#paint20_linear_102_126)" stroke-width="0.910388" stroke-miterlimit="10"/>
<path d="M1989.03 1077.53C2009.03 962.121 1951 910.634 1900.23 849.139C1875.3 818.577 1852.93 784.952 1841.73 739.44C1808.62 601.202 1868.44 524.389 1811.7 359.294C1798.96 322.659 1754.84 294.341 1702.06 265.628C1582.97 201.357 1449.44 118.136 1396.02 40.0175C1392.04 33.9375 1388.27 28.2653 1385.19 22.5578C1332.63 -76.1347 1354.54 -195.831 1311.13 -284.1C1301.25 -303.703 1287.93 -321.873 1270.23 -337.723C1209.95 -390.769 1145.69 -438.165 1081.93 -488.519" stroke="url(#paint21_linear_102_126)" stroke-width="0.910388" stroke-miterlimit="10"/>
<path d="M2033.8 1035.31C2053.35 920.329 1996.45 868.357 1945.88 807.259C1921.16 777.1 1898.57 743.06 1887.59 697.949C1853.52 561.833 1912.04 482.562 1852.66 323.023C1839.23 286.417 1794.39 259.388 1740.89 231.964C1620.16 168.604 1491.89 82.1634 1439.22 0.221799C1435.24 -5.85915 1431.47 -11.5323 1428.39 -17.2407C1377.89 -117.313 1397.98 -236.515 1354.33 -325.205C1344.23 -345.22 1331.59 -363.427 1313.42 -378.837C1252.9 -432.3 1189.09 -480.145 1125.32 -530.507" stroke="url(#paint22_linear_102_126)" stroke-width="0.910388" stroke-miterlimit="10"/>
<path d="M2078.59 993.186C2098.36 878.586 2041.44 826.601 1991.54 765.456C1966.81 735.29 1944.89 701.208 1933.44 656.53C1899.34 521.644 1955.41 440.386 1893.61 286.803C1879.03 250.668 1833.46 224.926 1780.17 197.904C1657.78 135.452 1535.02 44.9357 1483.53 -40.0192C1479.54 -46.1014 1476.24 -52.219 1473.15 -57.9286C1424.47 -158.536 1442.51 -277.657 1399.31 -366.81C1389.67 -387.272 1376.56 -405.041 1358.85 -420.897C1298.78 -474.814 1234.25 -522.636 1170.46 -573.009" stroke="url(#paint23_linear_102_126)" stroke-width="0.910388" stroke-miterlimit="10"/>
<path d="M2123.8 950.658C2143.33 836.884 2087.55 784.41 2037.63 723.251C2013.11 693.487 1991.19 659.398 1979.73 614.71C1945.12 481.497 1999.21 397.809 1935.21 250.593C1919.48 214.928 1873.18 190.474 1820.09 163.855C1695.36 102.345 1578.79 7.71627 1528.48 -80.253C1524.95 -86.7797 1521.18 -92.4554 1518.57 -98.6093C1471.48 -200.16 1488.16 -319.237 1444.94 -408.409C1435.3 -428.875 1421.96 -447.055 1404.71 -463.358C1344.86 -518.138 1280.31 -565.969 1216.04 -615.91" stroke="url(#paint24_linear_102_126)" stroke-width="0.910388" stroke-miterlimit="10"/>
<path d="M2168.55 908.478C2187.85 795.534 2132.51 742.608 2083.26 681.403C2059.2 651.191 2037.49 617.504 2025.56 573.251C1990.46 441.716 2042.31 356.453 1976.14 214.353C1959.71 178.717 1912.23 155.996 1858.88 130.223C1732.49 69.624 1621.2 -28.229 1572.32 -120.062C1568.79 -126.589 1565.49 -132.709 1562.87 -138.864C1517.39 -241.354 1532.45 -359.53 1489.47 -449.569C1479.82 -470.039 1466.48 -488.223 1449.23 -504.528C1389.82 -559.761 1324.79 -607.158 1260.06 -657.924" stroke="url(#paint25_linear_102_126)" stroke-width="0.910388" stroke-miterlimit="10"/>
<path d="M2213.33 866.356C2232.85 753.796 2177.96 700.415 2128.92 639.605C2104.85 609.386 2083.13 575.692 2071.42 531.838C2035.81 401.978 2085.2 314.725 2017.08 178.146C1999.5 142.981 1951.76 121.107 1898.14 96.1793C1770.09 36.4888 1663.85 -65.0017 1616.62 -160.295C1613.09 -166.824 1609.78 -172.945 1607.16 -179.102C1563.28 -282.535 1576.98 -400.668 1533.76 -491.134C1523.89 -512.016 1511.01 -530.646 1493.97 -546.547C1434.79 -602.643 1369.73 -650.05 1304.97 -700.827" stroke="url(#paint26_linear_102_126)" stroke-width="0.910388" stroke-miterlimit="10"/>
<path d="M2258.15 824.137C2277.22 712.001 2223.46 658.133 2174.62 597.72C2150.76 567.904 2129.04 534.203 2116.86 490.784C2080.99 361.752 2127.47 272.958 2057.61 142.315C2038.87 107.622 1990.4 87.0394 1936.52 62.9591C1806.82 4.17996 1706.11 -101.389 1660.06 -199.696C1657 -206.67 1653.69 -212.792 1651.07 -218.95C1609.01 -322.915 1621.12 -441.407 1577.89 -531.889C1568.02 -552.775 1555.13 -571.409 1537.87 -587.721C1478.91 -644.678 1413.38 -691.65 1348.6 -742.436" stroke="url(#paint27_linear_102_126)" stroke-width="0.910388" stroke-miterlimit="10"/>
<path d="M2302.92 782.013C2322.21 670.261 2268.65 616.789 2220.26 555.92C2196.4 526.098 2175.35 492.355 2162.7 449.37C2126.34 322.014 2169.88 231.674 2098.53 106.113C2079.1 71.4485 2029.22 52.191 1975.76 28.9221C1843.93 -28.504 1748.97 -137.748 1704.34 -239.926C1701.28 -246.902 1698.44 -253.469 1695.82 -259.627C1655.83 -364.98 1665.64 -482.539 1622.85 -573.484C1612.98 -594.375 1600.09 -613.014 1583.28 -629.772C1524.77 -687.185 1458.75 -733.723 1393.5 -785.336" stroke="url(#paint28_linear_102_126)" stroke-width="0.910388" stroke-miterlimit="10"/>
<path d="M2348.12 739.418C2367.18 628.499 2314.53 574.132 2266.35 513.661C2242.7 484.242 2221.43 450.085 2209 407.502C2172.13 281.829 2213.21 189.502 2139.91 69.4754C2119.32 35.2836 2068.72 17.3186 2015 -5.10228C1881.51 -61.6156 1791.62 -174.497 1748.65 -280.135C1745.59 -287.111 1742.74 -293.679 1740.59 -300.282C1702.2 -406.575 1710.64 -524.082 1667.85 -615.042C1657.97 -635.936 1644.86 -654.985 1628.04 -671.747C1569.77 -730.021 1503.72 -776.567 1437.99 -827.745" stroke="url(#paint29_linear_102_126)" stroke-width="0.910388" stroke-miterlimit="10"/>
</g>
</g>
<defs>
<filter id="filter0_b_102_126" x="-400" y="-400" width="2400" height="2000" filterUnits="userSpaceOnUse" color-interpolation-filters="sRGB">
<feFlood flood-opacity="0" result="BackgroundImageFix"/>
<feGaussianBlur in="BackgroundImage" stdDeviation="200"/>
<feComposite in2="SourceAlpha" operator="in" result="effect1_backgroundBlur_102_126"/>
<feBlend mode="normal" in="SourceGraphic" in2="effect1_backgroundBlur_102_126" result="shape"/>
</filter>
<linearGradient id="paint0_linear_102_126" x1="582.92" y1="745.616" x2="322.129" y2="857.64" gradientUnits="userSpaceOnUse">
<stop stop-color="white"/>
<stop offset="1"/>
</linearGradient>
<linearGradient id="paint1_linear_102_126" x1="536.479" y1="781.08" x2="281.792" y2="890.515" gradientUnits="userSpaceOnUse">
<stop stop-color="white"/>
<stop offset="1"/>
</linearGradient>
<linearGradient id="paint2_linear_102_126" x1="489.962" y1="816.633" x2="241.298" y2="923.516" gradientUnits="userSpaceOnUse">
<stop stop-color="white"/>
<stop offset="1"/>
</linearGradient>
<linearGradient id="paint3_linear_102_126" x1="443.488" y1="852.105" x2="200.834" y2="956.433" gradientUnits="userSpaceOnUse">
<stop stop-color="white"/>
<stop offset="1"/>
</linearGradient>
<linearGradient id="paint4_linear_102_126" x1="397.026" y1="887.61" x2="160.316" y2="989.418" gradientUnits="userSpaceOnUse">
<stop stop-color="white"/>
<stop offset="1"/>
</linearGradient>
<linearGradient id="paint5_linear_102_126" x1="350.495" y1="923.16" x2="119.711" y2="1022.45" gradientUnits="userSpaceOnUse">
<stop stop-color="white"/>
<stop offset="1"/>
</linearGradient>
<linearGradient id="paint6_linear_102_126" x1="304.034" y1="958.631" x2="79.1106" y2="1055.43" gradientUnits="userSpaceOnUse">
<stop stop-color="white"/>
<stop offset="1"/>
</linearGradient>
<linearGradient id="paint7_linear_102_126" x1="257.477" y1="994.186" x2="38.4038" y2="1088.49" gradientUnits="userSpaceOnUse">
<stop stop-color="white"/>
<stop offset="1"/>
</linearGradient>
<linearGradient id="paint8_linear_102_126" x1="211.001" y1="1029.69" x2="-2.28995" y2="1121.54" gradientUnits="userSpaceOnUse">
<stop stop-color="white"/>
<stop offset="1"/>
</linearGradient>
<linearGradient id="paint9_linear_102_126" x1="164.585" y1="1065.15" x2="-42.963" y2="1154.55" gradientUnits="userSpaceOnUse">
<stop stop-color="white"/>
<stop offset="1"/>
</linearGradient>
<linearGradient id="paint10_linear_102_126" x1="118.07" y1="1100.65" x2="-83.7583" y2="1187.62" gradientUnits="userSpaceOnUse">
<stop stop-color="white"/>
<stop offset="1"/>
</linearGradient>
<linearGradient id="paint11_linear_102_126" x1="71.5952" y1="1136.15" x2="-124.571" y2="1220.71" gradientUnits="userSpaceOnUse">
<stop stop-color="white"/>
<stop offset="1"/>
</linearGradient>
<linearGradient id="paint12_linear_102_126" x1="25.0059" y1="1171.75" x2="-165.523" y2="1253.9" gradientUnits="userSpaceOnUse">
<stop stop-color="white"/>
<stop offset="1"/>
</linearGradient>
<linearGradient id="paint13_linear_102_126" x1="-21.4645" y1="1207.22" x2="-206.484" y2="1287.03" gradientUnits="userSpaceOnUse">
<stop stop-color="white"/>
<stop offset="1"/>
</linearGradient>
<linearGradient id="paint14_linear_102_126" x1="-67.9361" y1="1242.71" x2="-247.661" y2="1320.25" gradientUnits="userSpaceOnUse">
<stop stop-color="white"/>
<stop offset="1"/>
</linearGradient>
<linearGradient id="paint15_linear_102_126" x1="1244.51" y1="570.876" x2="1496.79" y2="434.823" gradientUnits="userSpaceOnUse">
<stop stop-color="white"/>
<stop offset="1"/>
</linearGradient>
<linearGradient id="paint16_linear_102_126" x1="1289.18" y1="528.508" x2="1535.52" y2="395.647" gradientUnits="userSpaceOnUse">
<stop stop-color="white"/>
<stop offset="1"/>
</linearGradient>
<linearGradient id="paint17_linear_102_126" x1="1333.92" y1="486.095" x2="1574.38" y2="356.384" gradientUnits="userSpaceOnUse">
<stop stop-color="white"/>
<stop offset="1"/>
</linearGradient>
<linearGradient id="paint18_linear_102_126" x1="1378.61" y1="443.705" x2="1613.21" y2="317.136" gradientUnits="userSpaceOnUse">
<stop stop-color="white"/>
<stop offset="1"/>
</linearGradient>
<linearGradient id="paint19_linear_102_126" x1="1423.31" y1="401.332" x2="1652.12" y2="277.872" gradientUnits="userSpaceOnUse">
<stop stop-color="white"/>
<stop offset="1"/>
</linearGradient>
<linearGradient id="paint20_linear_102_126" x1="1468.05" y1="358.913" x2="1691.1" y2="238.551" gradientUnits="userSpaceOnUse">
<stop stop-color="white"/>
<stop offset="1"/>
</linearGradient>
<linearGradient id="paint21_linear_102_126" x1="1512.73" y1="316.535" x2="1730.07" y2="199.237" gradientUnits="userSpaceOnUse">
<stop stop-color="white"/>
<stop offset="1"/>
</linearGradient>
<linearGradient id="paint22_linear_102_126" x1="1557.47" y1="274.104" x2="1769.13" y2="159.862" gradientUnits="userSpaceOnUse">
<stop stop-color="white"/>
<stop offset="1"/>
</linearGradient>
<linearGradient id="paint23_linear_102_126" x1="1602.19" y1="231.719" x2="1808.21" y2="120.5" gradientUnits="userSpaceOnUse">
<stop stop-color="white"/>
<stop offset="1"/>
</linearGradient>
<linearGradient id="paint24_linear_102_126" x1="1646.86" y1="189.377" x2="1847.3" y2="81.1587" gradientUnits="userSpaceOnUse">
<stop stop-color="white"/>
<stop offset="1"/>
</linearGradient>
<linearGradient id="paint25_linear_102_126" x1="1691.57" y1="146.969" x2="1886.45" y2="41.7391" gradientUnits="userSpaceOnUse">
<stop stop-color="white"/>
<stop offset="1"/>
</linearGradient>
<linearGradient id="paint26_linear_102_126" x1="1736.27" y1="104.59" x2="1925.65" y2="2.31783" gradientUnits="userSpaceOnUse">
<stop stop-color="white"/>
<stop offset="1"/>
</linearGradient>
<linearGradient id="paint27_linear_102_126" x1="1781.05" y1="62.1439" x2="1964.95" y2="-37.1836" gradientUnits="userSpaceOnUse">
<stop stop-color="white"/>
<stop offset="1"/>
</linearGradient>
<linearGradient id="paint28_linear_102_126" x1="1825.75" y1="19.7643" x2="2004.29" y2="-76.6855" gradientUnits="userSpaceOnUse">
<stop stop-color="white"/>
<stop offset="1"/>
</linearGradient>
<linearGradient id="paint29_linear_102_126" x1="1870.45" y1="-22.6055" x2="2043.86" y2="-116.291" gradientUnits="userSpaceOnUse">
<stop stop-color="white"/>
<stop offset="1"/>
</linearGradient>
<clipPath id="clip0_102_126">
<rect width="1600" height="1585" fill="white"/>
</clipPath>
</defs>
</svg>
