<svg width="40" height="40" viewBox="0 0 40 40" fill="none" xmlns="http://www.w3.org/2000/svg">
<rect width="40" height="40" rx="20" fill="#6E8678"/>
<path d="M26.6498 14.3078C25.0576 13.0266 22.5389 12.8094 22.4311 12.8016C22.2639 12.7875 22.1045 12.8812 22.0357 13.0359C22.0295 13.0453 21.9748 13.1719 21.9139 13.3687C22.967 13.5469 24.2607 13.9047 25.4311 14.6312C25.6186 14.7469 25.6764 14.9937 25.5607 15.1812C25.4842 15.3047 25.3545 15.3719 25.2201 15.3719C25.1482 15.3719 25.0748 15.3516 25.0092 15.3109C22.9967 14.0625 20.4842 14 19.9998 14C19.5154 14 17.0014 14.0625 14.9904 15.3109C14.8029 15.4281 14.5561 15.3703 14.4404 15.1828C14.3232 14.9937 14.3811 14.7484 14.5686 14.6312C15.7389 13.9062 17.0326 13.5469 18.0857 13.3703C18.0248 13.1719 17.9701 13.0469 17.9654 13.0359C17.8951 12.8812 17.7373 12.7844 17.5686 12.8016C17.4607 12.8094 14.942 13.0266 13.3279 14.325C12.4857 15.1047 10.7998 19.6609 10.7998 23.6C10.7998 23.6703 10.8186 23.7375 10.8529 23.7984C12.0154 25.8422 15.1889 26.3766 15.9123 26.4C15.9154 26.4 15.9201 26.4 15.9248 26.4C16.0529 26.4 16.1732 26.3391 16.2482 26.2359L16.9795 25.2297C15.0061 24.7203 13.9982 23.8547 13.9404 23.8031C13.7748 23.6578 13.7592 23.4047 13.9061 23.2391C14.0514 23.0734 14.3045 23.0578 14.4701 23.2031C14.4936 23.225 16.3498 24.8 19.9998 24.8C23.6561 24.8 25.5123 23.2187 25.5311 23.2031C25.6967 23.0594 25.9482 23.0734 26.0951 23.2406C26.2404 23.4062 26.2248 23.6578 26.0592 23.8031C26.0014 23.8547 24.9936 24.7203 23.0201 25.2297L23.7514 26.2359C23.8264 26.3391 23.9467 26.4 24.0748 26.4C24.0795 26.4 24.0842 26.4 24.0873 26.4C24.8107 26.3766 27.9842 25.8422 29.1467 23.7984C29.1811 23.7375 29.1998 23.6703 29.1998 23.6C29.1998 19.6609 27.5139 15.1047 26.6498 14.3078ZM17.3998 22C16.6264 22 15.9998 21.2844 15.9998 20.4C15.9998 19.5156 16.6264 18.8 17.3998 18.8C18.1732 18.8 18.7998 19.5156 18.7998 20.4C18.7998 21.2844 18.1732 22 17.3998 22ZM22.5998 22C21.8264 22 21.1998 21.2844 21.1998 20.4C21.1998 19.5156 21.8264 18.8 22.5998 18.8C23.3732 18.8 23.9998 19.5156 23.9998 20.4C23.9998 21.2844 23.3732 22 22.5998 22Z" fill="#060707"/>
</svg>
