<svg width="40" height="40" viewBox="0 0 40 40" fill="none" xmlns="http://www.w3.org/2000/svg">
<rect width="40" height="40" rx="20" fill="#6E8678"/>
<path d="M16.4002 11.2C13.5322 11.2 11.2002 13.532 11.2002 16.4V23.6C11.2002 26.468 13.5322 28.8 16.4002 28.8H23.6002C26.4682 28.8 28.8002 26.468 28.8002 23.6V16.4C28.8002 13.532 26.4682 11.2 23.6002 11.2H16.4002ZM24.8002 14.4C25.2402 14.4 25.6002 14.76 25.6002 15.2C25.6002 15.64 25.2402 16 24.8002 16C24.3602 16 24.0002 15.64 24.0002 15.2C24.0002 14.76 24.3602 14.4 24.8002 14.4ZM20.0002 15.6C22.4282 15.6 24.4002 17.572 24.4002 20C24.4002 22.428 22.4282 24.4 20.0002 24.4C17.5722 24.4 15.6002 22.428 15.6002 20C15.6002 17.572 17.5722 15.6 20.0002 15.6ZM20.0002 16.4C18.0162 16.4 16.4002 18.016 16.4002 20C16.4002 21.984 18.0162 23.6 20.0002 23.6C21.9842 23.6 23.6002 21.984 23.6002 20C23.6002 18.016 21.9842 16.4 20.0002 16.4Z" fill="#060707"/>
</svg>
